<svg width="36" height="33" viewBox="0 0 36 33" fill="none" xmlns="http://www.w3.org/2000/svg">
<path d="M35.4913 10.5075L33.6181 2.71162C33.2256 1.10606 31.8341 0 30.2107 0H5.43151C3.82595 0 2.41662 1.1239 2.04199 2.71162L0.168826 10.5075C-0.259325 12.3272 0.133147 14.1825 1.27488 15.6453C1.4176 15.8416 1.61383 15.9843 1.77439 16.1627V28.5434C1.77439 30.5057 3.37996 32.1113 5.34231 32.1113H30.3178C32.2801 32.1113 33.8857 30.5057 33.8857 28.5434V16.1627C34.0462 16.0021 34.2425 15.8416 34.3852 15.6632C35.5269 14.2003 35.9372 12.3272 35.4913 10.5075ZM30.1572 3.55008L32.0304 11.346C32.2088 12.0953 32.0482 12.8445 31.5844 13.4332C31.3346 13.7543 30.7994 14.2717 29.9075 14.2717C28.8192 14.2717 27.8737 13.3975 27.7489 12.238L26.7142 3.56792L30.1572 3.55008ZM19.614 3.56792H23.1106L24.0739 11.6314C24.1631 12.3272 23.949 13.0229 23.4852 13.5403C23.0927 14.0041 22.5219 14.2717 21.7904 14.2717C20.5952 14.2717 19.614 13.2191 19.614 11.9347V3.56792ZM11.5683 11.6314L12.5495 3.56792H16.0461V11.9347C16.0461 13.2191 15.0649 14.2717 13.7448 14.2717C13.1382 14.2717 12.5852 14.0041 12.157 13.5403C11.7111 13.0229 11.497 12.3272 11.5683 11.6314ZM3.62971 11.346L5.43151 3.56792H8.94591L7.91122 12.238C7.7685 13.3975 6.84084 14.2717 5.75262 14.2717C4.87848 14.2717 4.32546 13.7543 4.09354 13.4332C3.61187 12.8624 3.45131 12.0953 3.62971 11.346ZM5.34231 28.5434V17.7861C5.48503 17.8039 5.60991 17.8396 5.75262 17.8396C7.30467 17.8396 8.714 17.1974 9.7487 16.1448C10.8191 17.2152 12.2462 17.8396 13.8696 17.8396C15.4217 17.8396 16.8132 17.1974 17.8479 16.1805C18.9004 17.1974 20.3276 17.8396 21.9332 17.8396C23.4317 17.8396 24.8588 17.2152 25.9292 16.1448C26.9639 17.1974 28.3733 17.8396 29.9253 17.8396C30.068 17.8396 30.1929 17.8039 30.3356 17.7861V28.5434H5.34231Z" fill="white" fill-opacity="0.6"/>
</svg>
