<svg width="100%" height="100%" viewBox="0 0 48 48" fill="none" xmlns="http://www.w3.org/2000/svg">
    <g opacity="0.4">
        <path
            d="M9.44539 42.3346C9.41939 42.3346 9.39539 42.3346 9.36739 42.3326C8.73739 42.3006 8.11939 42.1646 7.53139 41.9266C4.63739 40.7506 3.24139 37.4446 4.41539 34.5526L19.0574 8.90061C19.5614 7.98862 20.3254 7.22461 21.2574 6.70861C23.9874 5.19661 27.4394 6.19061 28.9494 8.91861L43.4954 34.3746C43.8194 35.1366 43.9574 35.7566 43.9914 36.3886C44.0694 37.9006 43.5534 39.3506 42.5414 40.4726C41.5294 41.5946 40.1394 42.2566 38.6294 42.3326L9.58939 42.3346H9.44539Z"
            fill="white" />
        <path
            d="M9.44539 42.3346C9.41939 42.3346 9.39539 42.3346 9.36739 42.3326C8.73739 42.3006 8.11939 42.1646 7.53139 41.9266C4.63739 40.7506 3.24139 37.4446 4.41539 34.5526L19.0574 8.90061C19.5614 7.98862 20.3254 7.22461 21.2574 6.70861C23.9874 5.19661 27.4394 6.19061 28.9494 8.91861L43.4954 34.3746C43.8194 35.1366 43.9574 35.7566 43.9914 36.3886C44.0694 37.9006 43.5534 39.3506 42.5414 40.4726C41.5294 41.5946 40.1394 42.2566 38.6294 42.3326L9.58939 42.3346H9.44539Z"
            fill="#F86868" />
    </g>
    <path fill-rule="evenodd" clip-rule="evenodd"
        d="M22.249 20.0416C22.249 19.0776 23.035 18.2916 23.999 18.2916C24.963 18.2916 25.749 19.0776 25.749 20.0416V25.6976C25.749 26.6636 24.963 27.4476 23.999 27.4476C23.035 27.4476 22.249 26.6636 22.249 25.6976V20.0416ZM22.249 32.5398C22.249 31.5698 23.035 30.7798 23.999 30.7798C24.963 30.7798 25.749 31.5598 25.749 32.5178C25.749 33.5038 24.963 34.2898 23.999 34.2898C23.035 34.2898 22.249 33.5038 22.249 32.5398Z"
        fill="white" />
    <path fill-rule="evenodd" clip-rule="evenodd"
        d="M22.249 20.0416C22.249 19.0776 23.035 18.2916 23.999 18.2916C24.963 18.2916 25.749 19.0776 25.749 20.0416V25.6976C25.749 26.6636 24.963 27.4476 23.999 27.4476C23.035 27.4476 22.249 26.6636 22.249 25.6976V20.0416ZM22.249 32.5398C22.249 31.5698 23.035 30.7798 23.999 30.7798C24.963 30.7798 25.749 31.5598 25.749 32.5178C25.749 33.5038 24.963 34.2898 23.999 34.2898C23.035 34.2898 22.249 33.5038 22.249 32.5398Z"
        fill="#F86868" />
</svg>