<svg width="10" height="14" viewBox="0 0 10 14" fill="none" xmlns="http://www.w3.org/2000/svg">
    <path
        d="M4.98765 0.466685C4.91379 0.468776 4.84148 0.488375 4.77667 0.523869C4.71186 0.559364 4.6564 0.60974 4.61487 0.670852L0.881533 6.14507C0.843931 6.2001 0.818551 6.26254 0.807099 6.32819C0.795648 6.39385 0.798391 6.46119 0.815143 6.5257C0.831896 6.59021 0.86227 6.65038 0.904222 6.70217C0.946174 6.75395 0.99873 6.79615 1.05836 6.82593L4.79169 8.68986C4.8565 8.72227 4.92796 8.73913 5.00041 8.73913C5.07287 8.73913 5.14433 8.72227 5.20914 8.68986L8.94247 6.82593C9.0021 6.79615 9.05465 6.75395 9.0966 6.70217C9.13856 6.65038 9.16893 6.59021 9.18568 6.5257C9.20244 6.46119 9.20518 6.39385 9.19373 6.32819C9.18228 6.26254 9.15689 6.2001 9.11929 6.14507L5.38596 0.670852C5.34199 0.606173 5.28247 0.553581 5.21288 0.517906C5.14328 0.482232 5.06583 0.464619 4.98765 0.466685ZM5.00041 1.76096V5.13335L8.04286 6.23257L5.00041 7.75106V5.13335L2.00263 6.15692L5.00041 1.76096ZM1.24976 7.93335C1.1633 7.93648 1.07941 7.96358 1.00746 8.01163C0.935505 8.05968 0.878326 8.12678 0.842303 8.20544C0.806281 8.2841 0.792833 8.37123 0.803462 8.4571C0.814092 8.54296 0.848379 8.62418 0.902496 8.69168L4.63583 13.3583C4.67955 13.4131 4.73502 13.4572 4.79814 13.4876C4.86125 13.5179 4.93038 13.5337 5.00041 13.5337C5.07044 13.5337 5.13958 13.5179 5.20269 13.4876C5.2658 13.4572 5.32127 13.4131 5.365 13.3583L9.09833 8.69168C9.16491 8.60861 9.20109 8.50527 9.20086 8.39881C9.20063 8.29235 9.16401 8.18917 9.09708 8.10638C9.03015 8.02359 8.93692 7.96618 8.83287 7.94366C8.72882 7.92114 8.6202 7.93487 8.52502 7.98257L5.00041 9.74533L1.4758 7.98257C1.40578 7.94745 1.32805 7.93053 1.24976 7.93335ZM2.95966 9.76812L4.79169 10.6841C4.8565 10.7165 4.92796 10.7334 5.00041 10.7334V12.3193L2.95966 9.76812Z"
        fill="white" />
</svg>