<svg width="16" height="16" viewBox="0 0 16 16" fill="none" xmlns="http://www.w3.org/2000/svg">
    <path
        d="M3.86894 7.77103C3.86895 7.69289 3.8845 7.61552 3.91468 7.54337C3.94487 7.47122 3.98911 7.40572 4.04484 7.35058C4.10058 7.29547 4.16674 7.25184 4.2395 7.22219C4.31225 7.19254 4.39018 7.17748 4.46882 7.17784L5.46336 7.18106C5.62193 7.18106 5.77403 7.24367 5.88616 7.35508C5.99827 7.4665 6.06127 7.61761 6.06127 7.77519V11.5122C6.17329 11.4792 6.31663 11.444 6.47439 11.4071C6.58368 11.3816 6.68108 11.3201 6.7508 11.2326C6.82052 11.1452 6.85847 11.0369 6.85849 10.9253V6.29018C6.85849 6.13261 6.92147 5.98147 7.0336 5.87004C7.14574 5.7586 7.29781 5.696 7.4564 5.69596H8.45397C8.61254 5.696 8.76463 5.7586 8.87675 5.87004C8.98888 5.98147 9.05188 6.13261 9.05188 6.29018V10.5924C9.05188 10.5924 9.30144 10.492 9.54438 10.3901C9.63466 10.3521 9.7117 10.2886 9.76589 10.2074C9.82007 10.1263 9.849 10.0311 9.84908 9.93364V4.80483C9.84908 4.6473 9.91206 4.4962 10.0242 4.38479C10.1363 4.27337 10.2883 4.21076 10.4469 4.21072H11.4434C11.6019 4.21088 11.7538 4.27354 11.8658 4.38494C11.9778 4.49635 12.0407 4.64737 12.0407 4.80483V9.02823C12.9047 8.40609 13.7803 7.65776 14.4751 6.758C14.5759 6.6274 14.6426 6.47403 14.6693 6.31158C14.6959 6.14912 14.6817 5.98264 14.6278 5.82699C14.3062 4.90752 13.7949 4.06488 13.1268 3.35301C12.4586 2.64114 11.6482 2.07572 10.7475 1.69291C9.84674 1.3101 8.8755 1.11835 7.89593 1.12992C6.91635 1.14149 5.94997 1.35613 5.05866 1.7601C4.16736 2.16406 3.37073 2.74848 2.71976 3.47593C2.0688 4.20338 1.57783 5.05784 1.27827 5.98465C0.978722 6.91147 0.877181 7.8902 0.980149 8.85825C1.08312 9.82629 1.38833 10.7623 1.87625 11.6064C1.96125 11.752 2.08631 11.8705 2.23675 11.9479C2.38719 12.0254 2.55673 12.0586 2.72546 12.0436C2.91398 12.0271 3.14867 12.0038 3.42773 11.9712C3.54918 11.9575 3.66129 11.8999 3.74274 11.8093C3.82419 11.7187 3.86927 11.6016 3.86941 11.4801V7.77103"
        fill="#8A8C8E" />
    <path
        d="M3.95288 13.7106C4.99606 14.4753 6.22885 14.9343 7.51488 15.0369C8.80088 15.1394 10.09 14.8815 11.2395 14.2916C12.3891 13.7017 13.3543 12.8029 14.0283 11.6945C14.7024 10.5862 15.059 9.31159 15.0588 8.01172C15.0588 7.8491 15.0513 7.68902 15.0405 7.52942C12.4856 11.3691 7.76816 13.1641 3.95288 13.7106Z"
        fill="#8A8C8E" />
</svg>