<svg width="16" height="16" viewBox="0 0 16 16" fill="none" xmlns="http://www.w3.org/2000/svg">
<path d="M2.97965 0C2.0284 0 1.27965 0.74875 1.27965 1.7V13.44H11.1996V1.7C11.1996 0.74875 10.4509 0 9.49965 0H2.97965ZM3.48965 1.6H8.98965C9.30965 1.6 9.59965 1.89 9.59965 2.21V5.47C9.59965 5.79 9.30965 6.08 8.98965 6.08H3.48965C3.16965 6.08 2.87965 5.79 2.87965 5.47V2.21C2.87965 1.89 3.16965 1.6 3.48965 1.6ZM12.0696 1.69L11.6096 2.15L13.4396 3.97V6.59C13.4396 6.95375 13.5909 7.33125 13.8496 7.59L15.3596 9.09V11.52C15.3596 12.2375 14.7971 12.8 14.0796 12.8C13.3621 12.8 12.7996 12.2375 12.7996 11.52V9.92C12.7996 9.07 12.2721 8.36875 11.5196 8.11V8.81C11.9034 9.02875 12.1596 9.4375 12.1596 9.92V11.52C12.1596 12.5962 13.0034 13.44 14.0796 13.44C15.1559 13.44 15.9996 12.5962 15.9996 11.52V6.21C15.9996 5.84625 15.8484 5.46875 15.5896 5.21L12.0696 1.69ZM0.959648 14.08C0.783399 14.08 0.639648 14.2225 0.639648 14.4V15.68C0.639648 15.8575 0.783399 16 0.959648 16H11.5196C11.6971 16 11.8396 15.8575 11.8396 15.68V14.4C11.8396 14.2225 11.6971 14.08 11.5196 14.08H0.959648Z" fill="white"/>
</svg>
