<svg width="5" height="11" viewBox="0 0 5 11" fill="none" xmlns="http://www.w3.org/2000/svg">
    <path
        d="M2.54784 2.10499C2.23784 2.10499 1.98784 2.00999 1.79784 1.81999C1.60784 1.61999 1.51284 1.36499 1.51284 1.05499C1.51284 0.74499 1.60784 0.494989 1.79784 0.304989C1.98784 0.114989 2.23784 0.019989 2.54784 0.019989C2.84784 0.019989 3.09784 0.114989 3.29784 0.304989C3.49784 0.494989 3.59784 0.74499 3.59784 1.05499C3.59784 1.36499 3.49784 1.61999 3.29784 1.81999C3.09784 2.00999 2.84784 2.10499 2.54784 2.10499ZM0.537842 3.81499V3.39499H3.41784V9.73999C3.41784 10.08 3.43284 10.285 3.46284 10.355C3.49284 10.415 3.58784 10.455 3.74784 10.475L4.57284 10.58V11H0.537842V10.58L1.36284 10.475C1.52284 10.455 1.61784 10.415 1.64784 10.355C1.67784 10.285 1.69284 10.08 1.69284 9.73999V4.65499C1.69284 4.31499 1.67784 4.11499 1.64784 4.05499C1.61784 3.98499 1.52284 3.93999 1.36284 3.91999L0.537842 3.81499Z"
        fill="#8A8C8E" />
</svg>