<svg width="16" height="16" viewBox="0 0 16 16" fill="none" xmlns="http://www.w3.org/2000/svg">
<path d="M8.00293 0.444308C7.7513 0.442714 7.50378 0.499479 7.28516 0.614229L1.23975 3.48532C0.787496 3.70057 0.5 4.15695 0.5 4.6572V11.1611C0.5 11.7401 0.833434 12.2678 1.35693 12.5161L7.25 15.311V7.10495L2.22119 4.64694L4.37305 3.6362L10.3306 6.4194L8.75 7.14743L8.75293 15.3139L14.6431 12.5146C15.1666 12.2664 15.5 11.7394 15.5 11.1596V4.6572C15.5 4.1562 15.2125 3.70057 14.7603 3.48532L8.74268 0.628878C8.5098 0.506253 8.25455 0.445901 8.00293 0.444308ZM7.95459 1.95603C7.98234 1.94103 8.01628 1.94067 8.07178 1.97067L14.0996 4.68064L12.1118 5.59763L6.14111 2.8071L7.95459 1.95603Z" fill="white"/>
</svg>
