<svg width="14" height="14" viewBox="0 0 14 14" fill="none" xmlns="http://www.w3.org/2000/svg">
<path d="M2.60731 0C1.77497 0 1.11981 0.655156 1.11981 1.4875V11.76H9.79981V1.4875C9.79981 0.655156 9.14466 0 8.31231 0H2.60731ZM3.05356 1.4H7.86606C8.14606 1.4 8.39981 1.65375 8.39981 1.93375V4.78625C8.39981 5.06625 8.14606 5.32 7.86606 5.32H3.05356C2.77356 5.32 2.51981 5.06625 2.51981 4.78625V1.93375C2.51981 1.65375 2.77356 1.4 3.05356 1.4ZM10.5611 1.47875L10.1586 1.88125L11.7598 3.47375V5.76625C11.7598 6.08453 11.8922 6.41484 12.1186 6.64125L13.4398 7.95375V10.08C13.4398 10.7078 12.9476 11.2 12.3198 11.2C11.692 11.2 11.1998 10.7078 11.1998 10.08V8.68C11.1998 7.93625 10.7383 7.32266 10.0798 7.09625V7.70875C10.4156 7.90016 10.6398 8.25781 10.6398 8.68V10.08C10.6398 11.0217 11.3781 11.76 12.3198 11.76C13.2615 11.76 13.9998 11.0217 13.9998 10.08V5.43375C13.9998 5.11547 13.8675 4.78516 13.6411 4.55875L10.5611 1.47875ZM0.839814 12.32C0.685596 12.32 0.559814 12.4447 0.559814 12.6V13.72C0.559814 13.8753 0.685596 14 0.839814 14H10.0798C10.2351 14 10.3598 13.8753 10.3598 13.72V12.6C10.3598 12.4447 10.2351 12.32 10.0798 12.32H0.839814Z" fill="#8A8C8E"/>
</svg>
