<svg width="9" height="13" viewBox="0 0 9 13" fill="none" xmlns="http://www.w3.org/2000/svg">
<path d="M4.48635 0.000162175C4.40722 0.00224197 4.32975 0.0217401 4.26032 0.0570523C4.19089 0.0923645 4.13148 0.142481 4.08698 0.203279L0.0874251 5.64936C0.0471423 5.7041 0.019952 5.76622 0.0076839 5.83154C-0.0045842 5.89686 -0.00164563 5.96386 0.0163018 6.02804C0.0342492 6.09221 0.0667892 6.15207 0.111733 6.20359C0.156676 6.25511 0.21298 6.2971 0.276857 6.32672L4.27641 8.18107C4.34584 8.21331 4.4224 8.23009 4.50002 8.23009C4.57765 8.23009 4.6542 8.21331 4.72363 8.18107L8.72319 6.32672C8.78706 6.2971 8.84337 6.25511 8.88831 6.20359C8.93326 6.15207 8.9658 6.09221 8.98374 6.02804C9.00169 5.96386 9.00463 5.89686 8.99236 5.83154C8.98009 5.76622 8.9529 5.7041 8.91262 5.64936L4.91306 0.203279C4.86596 0.138933 4.8022 0.0866113 4.72764 0.05112C4.65308 0.0156286 4.57011 -0.0018939 4.48635 0.000162175ZM4.50002 1.28778V4.64284L7.75943 5.73641L4.50002 7.24709V4.64284L1.28846 5.66115L4.50002 1.28778ZM0.481913 7.42845C0.389285 7.43156 0.299411 7.45852 0.222329 7.50632C0.145247 7.55413 0.0839896 7.62088 0.0453983 7.69914C0.00680694 7.7774 -0.00759934 7.86408 0.00378786 7.9495C0.0151751 8.03493 0.0519075 8.11573 0.109884 8.18288L4.10944 12.8256C4.15628 12.88 4.21571 12.9239 4.28332 12.9541C4.35093 12.9843 4.425 13 4.50002 13C4.57505 13 4.64911 12.9843 4.71672 12.9541C4.78434 12.9239 4.84376 12.88 4.8906 12.8256L8.89016 8.18288C8.96149 8.10024 9.00024 7.99743 9 7.89152C8.99976 7.78561 8.96053 7.68295 8.88882 7.60059C8.81712 7.51823 8.71724 7.46111 8.60577 7.4387C8.4943 7.4163 8.37793 7.42996 8.27597 7.47742L4.50002 9.23112L0.724073 7.47742C0.649057 7.44248 0.565779 7.42564 0.481913 7.42845ZM2.31374 9.25378L4.27641 10.1651C4.34585 10.1973 4.4224 10.2141 4.50002 10.2141V11.7918L2.31374 9.25378Z" fill="#8A8C8E"/>
</svg>
