<svg width="10" height="15" viewBox="0 0 10 15" fill="none" xmlns="http://www.w3.org/2000/svg">
<path d="M4.98484 0.000187125C4.89691 0.00258689 4.81084 0.0250848 4.73369 0.0658296C4.65655 0.106574 4.59054 0.164402 4.54109 0.234553L0.097139 6.51849C0.0523803 6.58166 0.0221689 6.65334 0.00853767 6.7287C-0.00509356 6.80407 -0.00182847 6.88138 0.0181131 6.95543C0.0380547 7.02947 0.0742102 7.09855 0.124147 7.15799C0.174084 7.21744 0.236645 7.26588 0.307619 7.30006L4.75157 9.4397C4.82871 9.4769 4.91378 9.49626 5.00002 9.49626C5.08627 9.49626 5.17134 9.4769 5.24848 9.4397L9.69243 7.30006C9.7634 7.26588 9.82596 7.21744 9.8759 7.15799C9.92584 7.09855 9.962 7.02947 9.98194 6.95543C10.0019 6.88138 10.0051 6.80407 9.99151 6.7287C9.97788 6.65334 9.94767 6.58166 9.90291 6.51849L5.45896 0.234553C5.40662 0.160308 5.33578 0.0999361 5.25293 0.0589846C5.17009 0.018033 5.0779 -0.00218527 4.98484 0.000187125ZM5.00002 1.4859V5.35713L8.62158 6.61894L5.00002 8.36203V5.35713L1.43163 6.53209L5.00002 1.4859ZM0.535459 8.57129C0.432538 8.57488 0.332679 8.60599 0.247032 8.66114C0.161385 8.7163 0.0933218 8.79333 0.0504425 8.88362C0.00756326 8.97392 -0.00844371 9.07394 0.00420873 9.1725C0.0168612 9.27107 0.057675 9.3643 0.122093 9.44179L4.56604 14.7987C4.61809 14.8615 4.68412 14.9122 4.75925 14.9471C4.83437 14.9819 4.91666 15 5.00002 15C5.08339 15 5.16568 14.9819 5.2408 14.9471C5.31593 14.9122 5.38196 14.8615 5.434 14.7987L9.87796 9.44179C9.95721 9.34643 10.0003 9.22781 10 9.1056C9.99973 8.98339 9.95614 8.86495 9.87647 8.76991C9.7968 8.67488 9.68583 8.60897 9.56197 8.58312C9.43811 8.55727 9.30881 8.57303 9.19552 8.62779L5.00002 10.6513L0.804526 8.62779C0.721175 8.58748 0.628643 8.56805 0.535459 8.57129ZM2.57082 10.6774L4.75157 11.729C4.82872 11.7661 4.91378 11.7855 5.00002 11.7855V13.606L2.57082 10.6774Z" fill="#8A8C8E"/>
</svg>
