<svg width="100%" height="100%" viewBox="0 0 254 238" fill="none" xmlns="http://www.w3.org/2000/svg">
<path d="M199.314 201.278H129.149L123.018 224.163H31.4812L91.4905 0.204041H253.19L199.314 201.278Z" fill="url(#paint0_linear_2_13)"/>
<path d="M217.659 27.4689L178.392 174.013H143.31L146.878 160.695H111.796L102.097 196.897H67.0141L112.412 27.4689H147.494L121.567 124.226H156.652L182.577 27.4689H217.659Z" fill="url(#paint1_linear_2_13)"/>
<path d="M91.4905 0.204041L60.8189 13.8365L0.809647 237.796L31.4812 224.164L91.4905 0.204041Z" fill="url(#paint2_linear_2_13)"/>
<path d="M123.018 224.163H31.4812L0.809647 237.796H92.3446L123.018 224.163Z" fill="url(#paint3_linear_2_13)"/>
<path d="M168.64 214.911L199.314 201.278H129.149L125.497 214.911H168.64Z" fill="url(#paint4_linear_2_13)"/>
<defs>
<linearGradient id="paint0_linear_2_13" x1="31.4812" y1="112.183" x2="253.19" y2="112.183" gradientUnits="userSpaceOnUse">
<stop stop-color="#F03246"/>
<stop offset="1" stop-color="#F06E32"/>
</linearGradient>
<linearGradient id="paint1_linear_2_13" x1="160.583" y1="21.7671" x2="123.129" y2="207.362" gradientUnits="userSpaceOnUse">
<stop stop-color="#D2D2DC"/>
<stop offset="1" stop-color="white"/>
</linearGradient>
<linearGradient id="paint2_linear_2_13" x1="91.1688" y1="0.75979" x2="1.10216" y2="237.32" gradientUnits="userSpaceOnUse">
<stop stop-color="#F06E32"/>
<stop offset="1" stop-color="#F03246"/>
</linearGradient>
<linearGradient id="paint3_linear_2_13" x1="122.439" y1="224.201" x2="1.498" y2="237.745" gradientUnits="userSpaceOnUse">
<stop stop-color="#F06E32"/>
<stop offset="1" stop-color="#F03246"/>
</linearGradient>
<linearGradient id="paint4_linear_2_13" x1="198.148" y1="198.605" x2="125.341" y2="212.633" gradientUnits="userSpaceOnUse">
<stop stop-color="#F06E32"/>
<stop offset="1" stop-color="#F03246"/>
</linearGradient>
</defs>
</svg>
