<svg width="24" height="18" viewBox="0 0 24 18" fill="none" xmlns="http://www.w3.org/2000/svg">
    <path d="M8.949 2.94L4.38 7.485L11.991 15.06L19.602 7.488L15.033 2.94H8.949Z" fill="#8A8C8E" />
    <path
        d="M8.73601 5.89199C10.533 4.09199 13.449 4.09199 15.246 5.89199L16.8 7.44599L15.246 8.99999C13.449 10.8 10.533 10.8 8.73601 8.99999L7.18201 7.44599L8.73601 5.89199Z"
        fill="#222528" />
    <path fill-rule="evenodd" clip-rule="evenodd"
        d="M11.991 9.35101C10.941 9.35101 10.089 8.52 10.089 7.497C10.089 6.47401 10.941 5.64301 11.991 5.64301C13.041 5.64301 13.893 6.47401 13.893 7.497C13.893 8.52 13.044 9.35101 11.991 9.35101Z"
        fill="white" />
    <path
        d="M11.9909 8.24699C11.5499 8.24699 11.1899 7.88699 11.1899 7.44599C11.1899 7.00199 11.5499 6.64499 11.9909 6.64499C12.4319 6.64499 12.7919 7.00499 12.7919 7.44599C12.7919 7.88999 12.4349 8.24699 11.9909 8.24699Z"
        fill="#252A3E" />
</svg>