<svg width="11" height="11" viewBox="0 0 11 11" fill="none" xmlns="http://www.w3.org/2000/svg">
    <path
        d="M10.1539 0H5.12261C4.91583 0.00136492 4.7179 0.0841132 4.57169 0.230331C4.42547 0.376549 4.34272 0.574471 4.34136 0.78125C4.34272 0.988029 4.42547 1.18595 4.57169 1.33217C4.7179 1.47839 4.91583 1.56114 5.12261 1.5625H8.26844L0.226772 9.60417C0.0814805 9.75119 0 9.94955 0 10.1562C0 10.3629 0.0814805 10.5613 0.226772 10.7083C0.299166 10.781 0.385202 10.8387 0.479943 10.8781C0.574684 10.9174 0.676265 10.9377 0.778856 10.9377C0.881446 10.9377 0.983027 10.9174 1.07777 10.8781C1.17251 10.8387 1.25855 10.781 1.33094 10.7083L9.37469 2.66667V5.8125C9.37469 6.0197 9.457 6.21841 9.60351 6.36493C9.75002 6.51144 9.94874 6.59375 10.1559 6.59375C10.3631 6.59375 10.5619 6.51144 10.7084 6.36493C10.8549 6.21841 10.9372 6.0197 10.9372 5.8125V0.78125C10.9358 0.574112 10.8528 0.375879 10.7061 0.229602C10.5595 0.0833256 10.361 0.00081855 10.1539 0V0Z"
        fill="#8A8C8E" />
</svg>