<svg width="16" height="15" viewBox="0 0 16 15" fill="none" xmlns="http://www.w3.org/2000/svg">
    <path
        d="M0.931715 8.04281L0.986468 7.95675L4.28863 2.79095C4.33689 2.71529 4.45034 2.72314 4.48687 2.80528C5.03852 4.04165 5.51456 5.57926 5.29155 6.53651C5.19634 6.93036 4.9355 7.46378 4.64205 7.95675C4.60425 8.02848 4.5625 8.09892 4.51816 8.16673C4.49731 8.19801 4.46208 8.21629 4.42425 8.21629H1.02822C0.936906 8.21629 0.883451 8.11717 0.931715 8.04281Z"
        fill="#8A8C8E" />
    <path
        d="M15.6505 9.00268V9.82038C15.6505 9.86732 15.6218 9.90907 15.5801 9.92732C15.3245 10.0369 14.4494 10.4386 14.0855 10.9446C13.1569 12.237 12.4475 14.085 10.8616 14.085H4.24554C1.90066 14.085 0.000488281 12.1783 0.000488281 9.8256V9.74994C0.000488281 9.68735 0.0513482 9.63649 0.113943 9.63649H3.80213C3.87516 9.63649 3.92865 9.7043 3.92213 9.77604C3.89604 10.016 3.94038 10.2612 4.05383 10.4842C4.27293 10.9289 4.7268 11.2067 5.21715 11.2067H7.04299V9.78125H5.23802C5.14541 9.78125 5.09066 9.67432 5.14412 9.59866C5.16369 9.56868 5.18586 9.53736 5.20933 9.50216C5.38016 9.2596 5.62405 8.88268 5.86662 8.4536C6.03226 8.1641 6.19268 7.85499 6.32179 7.54461C6.34788 7.48853 6.36873 7.43116 6.3896 7.37505C6.42481 7.27596 6.46133 7.18335 6.4874 7.09077C6.51349 7.01252 6.53437 6.93035 6.55524 6.85339C6.61654 6.58996 6.6426 6.31086 6.6426 6.02133C6.6426 5.90788 6.63738 5.78921 6.62695 5.67572C6.62176 5.55183 6.6061 5.42794 6.59044 5.30405C6.58001 5.19449 6.56046 5.08625 6.53959 4.9728C6.51349 4.80716 6.47699 4.64284 6.43524 4.4772L6.42091 4.41461C6.3896 4.30116 6.36351 4.19289 6.32701 4.07944C6.22396 3.72339 6.10529 3.37649 5.9801 3.05175C5.93446 2.92264 5.88227 2.79875 5.83012 2.67486C5.75316 2.48835 5.67491 2.31881 5.60318 2.15839C5.56668 2.08536 5.53537 2.01885 5.50408 1.95103C5.46885 1.87408 5.43235 1.79716 5.39582 1.7241C5.36975 1.66802 5.33974 1.61586 5.31887 1.5637L5.09588 1.15158C5.06457 1.0955 5.11673 1.02898 5.17802 1.04594L6.57349 1.42416H6.57741C6.58001 1.42416 6.58131 1.42545 6.58263 1.42545L6.76649 1.47631L6.96866 1.53369L7.04299 1.55456V0.725125C7.04299 0.324735 7.3638 0 7.76027 0C7.95852 0 8.13849 0.080845 8.2676 0.212578C8.39671 0.344311 8.47758 0.524281 8.47758 0.725125V1.95625L8.62624 1.99797C8.63798 2.00189 8.64971 2.00711 8.66015 2.01492C8.69668 2.04231 8.74884 2.08277 8.81535 2.1323C8.86751 2.17405 8.92359 2.22491 8.99143 2.27706C9.12576 2.38533 9.28615 2.52488 9.46223 2.68527C9.50916 2.72572 9.55481 2.76744 9.59655 2.80919C9.82346 3.02044 10.0778 3.26825 10.3204 3.54213C10.3882 3.61905 10.4547 3.6973 10.5225 3.77947C10.5903 3.86294 10.662 3.94511 10.7247 4.02728C10.8068 4.13681 10.8955 4.25027 10.9724 4.36897C11.0089 4.42505 11.0507 4.48242 11.0859 4.5385C11.185 4.68849 11.2724 4.84369 11.3559 4.99886C11.3911 5.0706 11.4276 5.14885 11.4589 5.2258C11.5515 5.43316 11.6245 5.64444 11.6715 5.85572C11.6858 5.90136 11.6962 5.95092 11.7015 5.99527V6.00568C11.7171 6.0683 11.7223 6.13481 11.7276 6.20263C11.7484 6.4191 11.738 6.6356 11.691 6.85339C11.6715 6.946 11.6454 7.03336 11.6141 7.12597C11.5828 7.21466 11.5515 7.30724 11.5111 7.39463C11.4328 7.57589 11.3402 7.75719 11.2307 7.92672C11.1955 7.98932 11.1537 8.05583 11.112 8.11843C11.0664 8.18494 11.0194 8.24756 10.9777 8.30886C10.9203 8.38711 10.859 8.46925 10.7964 8.54229C10.7403 8.61924 10.6829 8.69619 10.6203 8.764C10.5329 8.86702 10.4495 8.96485 10.3621 9.05875C10.3099 9.12005 10.2538 9.18264 10.1965 9.23872C10.1404 9.30132 10.083 9.35739 10.0308 9.40955C9.94346 9.49694 9.87043 9.56475 9.80913 9.62083L9.66567 9.75257C9.64479 9.77082 9.6174 9.78125 9.58871 9.78125H8.47758V11.2067H9.87565C10.1886 11.2067 10.486 11.0958 10.726 10.8924C10.8081 10.8207 11.1668 10.5103 11.5906 10.0421C11.605 10.0264 11.6232 10.0147 11.6441 10.0095L15.5057 8.89311C15.5775 8.87224 15.6505 8.92702 15.6505 9.00268Z"
        fill="#8A8C8E" />
</svg>