<svg width="14" height="22" viewBox="0 0 14 22" fill="none" xmlns="http://www.w3.org/2000/svg">
<path d="M6.98061 0.733349C6.86454 0.736635 6.75091 0.767433 6.64907 0.82321C6.54723 0.878987 6.46008 0.958149 6.39481 1.05418L0.52814 9.65652C0.469052 9.743 0.429169 9.84112 0.411173 9.94429C0.393178 10.0475 0.397488 10.1533 0.423814 10.2547C0.45014 10.356 0.497871 10.4506 0.563795 10.532C0.629719 10.6133 0.712308 10.6797 0.806005 10.7264L6.67267 13.6555C6.77451 13.7064 6.88681 13.7329 7.00067 13.7329C7.11453 13.7329 7.22682 13.7064 7.32866 13.6555L13.1953 10.7264C13.289 10.6797 13.3716 10.6133 13.4375 10.532C13.5035 10.4506 13.5512 10.356 13.5775 10.2547C13.6038 10.1533 13.6082 10.0475 13.5902 9.94429C13.5722 9.84112 13.5323 9.743 13.4732 9.65652L7.60653 1.05418C7.53743 0.952545 7.44391 0.8699 7.33454 0.81384C7.22517 0.757779 7.10347 0.730102 6.98061 0.733349ZM7.00067 2.7672V8.06668L11.7817 9.79403L7.00067 12.1802V8.06668L2.28986 9.67515L7.00067 2.7672ZM1.10679 12.4667C0.970916 12.4716 0.839087 12.5142 0.726021 12.5897C0.612954 12.6652 0.523101 12.7706 0.466494 12.8943C0.409887 13.0179 0.388755 13.1548 0.405458 13.2897C0.422162 13.4246 0.476042 13.5523 0.561083 13.6583L6.42775 20.9917C6.49646 21.0776 6.58363 21.1471 6.6828 21.1947C6.78198 21.2424 6.89062 21.2672 7.00067 21.2672C7.11072 21.2672 7.21935 21.2424 7.31853 21.1947C7.41771 21.1471 7.50488 21.0776 7.57358 20.9917L13.4402 13.6583C13.5449 13.5278 13.6017 13.3654 13.6014 13.1981C13.601 13.0308 13.5435 12.8687 13.4383 12.7386C13.3331 12.6085 13.1866 12.5183 13.0231 12.4829C12.8596 12.4475 12.6889 12.4691 12.5393 12.544L7.00067 15.3141L1.46199 12.544C1.35196 12.4888 1.2298 12.4622 1.10679 12.4667ZM3.79377 15.3499L6.67267 16.7893C6.77452 16.8402 6.88681 16.8667 7.00067 16.8667V19.3589L3.79377 15.3499Z" fill="white"/>
</svg>
