<svg width="10" height="14" viewBox="0 0 10 14" fill="none" xmlns="http://www.w3.org/2000/svg">
<path d="M4.98753 0.466685C4.91367 0.468776 4.84136 0.488375 4.77655 0.523869C4.71174 0.559364 4.65628 0.60974 4.61474 0.670852L0.881411 6.14507C0.843809 6.2001 0.818429 6.26254 0.806977 6.32819C0.795526 6.39385 0.798269 6.46119 0.815021 6.5257C0.831774 6.59021 0.862148 6.65038 0.9041 6.70217C0.946052 6.75395 0.998608 6.79615 1.05823 6.82593L4.79157 8.68986C4.85637 8.72227 4.92783 8.73913 5.00029 8.73913C5.07275 8.73913 5.14421 8.72227 5.20901 8.68986L8.94235 6.82593C9.00197 6.79615 9.05453 6.75395 9.09648 6.70217C9.13843 6.65038 9.16881 6.59021 9.18556 6.5257C9.20231 6.46119 9.20506 6.39385 9.1936 6.32819C9.18215 6.26254 9.15677 6.2001 9.11917 6.14507L5.38584 0.670852C5.34187 0.606173 5.28235 0.553581 5.21276 0.517906C5.14316 0.482232 5.06571 0.464619 4.98753 0.466685ZM5.00029 1.76096V5.13335L8.04274 6.23257L5.00029 7.75106V5.13335L2.0025 6.15692L5.00029 1.76096ZM1.24964 7.93335C1.16318 7.93648 1.07929 7.96358 1.00733 8.01163C0.935383 8.05968 0.878204 8.12678 0.842181 8.20544C0.806159 8.2841 0.792711 8.37123 0.80334 8.4571C0.81397 8.54296 0.848257 8.62418 0.902374 8.69168L4.63571 13.3583C4.67943 13.4131 4.7349 13.4572 4.79801 13.4876C4.86113 13.5179 4.93026 13.5337 5.00029 13.5337C5.07032 13.5337 5.13946 13.5179 5.20257 13.4876C5.26568 13.4572 5.32115 13.4131 5.36487 13.3583L9.09821 8.69168C9.16479 8.60861 9.20096 8.50527 9.20074 8.39881C9.20051 8.29235 9.16389 8.18917 9.09696 8.10638C9.03003 8.02359 8.9368 7.96618 8.83275 7.94366C8.7287 7.92114 8.62008 7.93487 8.5249 7.98257L5.00029 9.74533L1.47568 7.98257C1.40566 7.94745 1.32792 7.93053 1.24964 7.93335ZM2.95954 9.76812L4.79157 10.6841C4.85638 10.7165 4.92784 10.7334 5.00029 10.7334V12.3193L2.95954 9.76812Z" fill="white"/>
</svg>
