<svg width="15" height="15" viewBox="0 0 15 15" fill="none" xmlns="http://www.w3.org/2000/svg">
<path opacity="0.4" d="M13.7499 7.49994C13.7499 10.9524 10.9518 13.7499 7.49988 13.7499C4.048 13.7499 1.24988 10.9524 1.24988 7.49994C1.24988 4.04869 4.048 1.24994 7.49988 1.24994C10.9518 1.24994 13.7499 4.04869 13.7499 7.49994Z" fill="#8A8C8E"/>
<path d="M9.7334 9.88399C9.65152 9.88399 9.56902 9.86274 9.4934 9.81837L7.03965 8.35462C6.8984 8.26962 6.81152 8.11649 6.81152 7.95149V4.79712C6.81152 4.53837 7.02152 4.32837 7.28027 4.32837C7.53902 4.32837 7.74902 4.53837 7.74902 4.79712V7.68524L9.97402 9.01212C10.1959 9.14524 10.269 9.43274 10.1365 9.65524C10.0484 9.80212 9.89277 9.88399 9.7334 9.88399Z" fill="#8A8C8E"/>
</svg>
