<svg width="26" height="26" viewBox="0 0 26 26" fill="none" xmlns="http://www.w3.org/2000/svg">
<path d="M13 0C5.83213 0 0 5.83213 0 13C0 20.1679 5.83213 26 13 26C20.1679 26 26 20.1679 26 13C26 5.83213 20.1679 0 13 0ZM13 22.75C7.62287 22.75 3.25 18.3771 3.25 13C3.25 7.62287 7.62287 3.25 13 3.25C18.3771 3.25 22.75 7.62287 22.75 13C22.75 18.3771 18.3771 22.75 13 22.75Z" fill="#797979"/>
<path d="M14.625 6.5H11.375V11.375H6.5V14.625H11.375V19.5H14.625V14.625H19.5V11.375H14.625V6.5Z" fill="#797979"/>
</svg>
