<svg width="26" height="34" viewBox="0 0 26 34" fill="none" xmlns="http://www.w3.org/2000/svg">
<path d="M23.2413 3.72669H18.8639V2.67186C18.8638 1.19863 17.6652 0 16.1919 0H9.80882C8.33552 0 7.13689 1.19863 7.13689 2.67186V3.72669H2.75916C1.24472 3.72669 0.0126953 4.95871 0.0126953 6.47315V9.31628C0.0126953 9.92158 0.50343 10.4123 1.10874 10.4123H1.67342V32.904C1.67342 33.5093 2.16415 34 2.76946 34H23.231C23.8363 34 24.3271 33.5093 24.3271 32.904V10.4123H24.8917C25.497 10.4123 25.9878 9.92158 25.9878 9.31628V6.47315C25.9877 4.95871 24.7557 3.72669 23.2413 3.72669ZM9.32897 2.67186C9.32897 2.40727 9.54424 2.19208 9.80882 2.19208H16.1919C16.4565 2.19208 16.6717 2.40734 16.6717 2.67186V3.72669H9.32897V2.67186V2.67186ZM2.20485 6.47315C2.20485 6.16742 2.45351 5.91877 2.75923 5.91877H23.2413C23.547 5.91877 23.7957 6.16742 23.7957 6.47315V8.22024H2.20485V6.47315ZM22.135 31.8079H3.8655V10.4123H22.135V31.8079Z" fill="#797979"/>
<path d="M6.04075 30.2131C6.44432 30.2131 6.77145 29.886 6.77145 29.4824V12.1659C6.77145 11.7623 6.44432 11.4352 6.04075 11.4352C5.63719 11.4352 5.31006 11.7623 5.31006 12.1659V29.4824C5.31006 29.886 5.63719 30.2131 6.04075 30.2131Z" fill="#797979"/>
<path d="M10.6804 30.2131C11.084 30.2131 11.4111 29.886 11.4111 29.4824V12.1659C11.4111 11.7623 11.084 11.4352 10.6804 11.4352C10.2768 11.4352 9.94971 11.7623 9.94971 12.1659V29.4824C9.94971 29.886 10.2768 30.2131 10.6804 30.2131Z" fill="#797979"/>
<path d="M15.32 30.2131C15.7236 30.2131 16.0507 29.886 16.0507 29.4824V12.1659C16.0507 11.7623 15.7236 11.4352 15.32 11.4352C14.9165 11.4352 14.5894 11.7623 14.5894 12.1659V29.4824C14.5894 29.886 14.9165 30.2131 15.32 30.2131Z" fill="#797979"/>
<path d="M19.9597 30.2131C20.3633 30.2131 20.6904 29.886 20.6904 29.4824V12.1659C20.6904 11.7623 20.3633 11.4352 19.9597 11.4352C19.5561 11.4352 19.229 11.7623 19.229 12.1659V29.4824C19.229 29.886 19.5561 30.2131 19.9597 30.2131Z" fill="#797979"/>
</svg>
