<svg width="41" height="41" viewBox="0 0 41 41" fill="none" xmlns="http://www.w3.org/2000/svg">
    <g opacity="0.4">
        <path
            d="M6.66234 20.5C6.66234 17.5788 9.03692 15.2042 11.9582 15.2042H18.7915V11.9583H11.9582C7.24317 11.9583 3.4165 15.785 3.4165 20.5C3.4165 25.215 7.24317 29.0417 11.9582 29.0417H18.7915V25.7958H11.9582C9.03692 25.7958 6.66234 23.4213 6.66234 20.5ZM13.6665 22.2083H27.3332V18.7917H13.6665V22.2083ZM29.0415 11.9583H22.2082V15.2042H29.0415C31.9628 15.2042 34.3373 17.5788 34.3373 20.5C34.3373 23.4213 31.9628 25.7958 29.0415 25.7958H22.2082V29.0417H29.0415C33.7565 29.0417 37.5832 25.215 37.5832 20.5C37.5832 15.785 33.7565 11.9583 29.0415 11.9583Z"
            fill="white" />
    </g>
</svg>