<svg width="33" height="41" viewBox="0 0 33 41" fill="none" xmlns="http://www.w3.org/2000/svg">
<path d="M16.5 41C18.7687 41 20.625 39.1077 20.625 36.7949H12.375C12.375 39.1077 14.2312 41 16.5 41ZM28.875 28.3846V17.8718C28.875 11.4169 25.5131 6.01333 19.5938 4.58359V3.15385C19.5938 1.40872 18.2119 0 16.5 0C14.7881 0 13.4062 1.40872 13.4062 3.15385V4.58359C7.5075 6.01333 4.125 11.3959 4.125 17.8718V28.3846L0 32.5897V34.6923H33V32.5897L28.875 28.3846ZM24.75 30.4872H8.25V17.8718C8.25 12.6574 11.3644 8.41026 16.5 8.41026C21.6356 8.41026 24.75 12.6574 24.75 17.8718V30.4872Z" fill="#797979"/>
</svg>
