<svg width="28" height="23" viewBox="0 0 28 23" fill="none" xmlns="http://www.w3.org/2000/svg">
    <path
        d="M19.8649 14.4654H18.6204L18.1794 14.1103C19.7232 12.6112 20.6526 10.665 20.6526 8.54774C20.6526 3.82676 16.0684 0 10.4131 0C4.75773 0 0.173584 3.82676 0.173584 8.54774C0.173584 13.2687 4.75773 17.0955 10.4131 17.0955C12.9493 17.0955 15.2808 16.3196 17.0766 15.0309L17.502 15.3991V16.438L25.3785 23L27.7257 21.0406L19.8649 14.4654ZM10.4131 14.4654C6.49057 14.4654 3.3242 11.8222 3.3242 8.54774C3.3242 5.2733 6.49057 2.63007 10.4131 2.63007C14.3356 2.63007 17.502 5.2733 17.502 8.54774C17.502 11.8222 14.3356 14.4654 10.4131 14.4654Z"
        fill="#CCCCCC" fill-opacity="0.5" />
</svg>