<svg width="27" height="23" viewBox="0 0 27 23" fill="none" xmlns="http://www.w3.org/2000/svg">
    <path
        d="M18.644 14.4654H17.4788L17.0658 14.1103C18.5113 12.6112 19.3815 10.665 19.3815 8.54774C19.3815 3.82676 15.0894 0 9.79426 0C4.49916 0 0.207031 3.82676 0.207031 8.54774C0.207031 13.2687 4.49916 17.0955 9.79426 17.0955C12.1689 17.0955 14.3519 16.3196 16.0333 15.0309L16.4316 15.3991V16.438L23.8064 23L26.0041 21.0406L18.644 14.4654ZM9.79426 14.4654C6.12162 14.4654 3.15695 11.8222 3.15695 8.54774C3.15695 5.2733 6.12162 2.63007 9.79426 2.63007C13.4669 2.63007 16.4316 5.2733 16.4316 8.54774C16.4316 11.8222 13.4669 14.4654 9.79426 14.4654Z"
        fill="#CCCCCC" fill-opacity="0.5" />
</svg>