<svg width="30" height="28" viewBox="0 0 30 28" fill="none" xmlns="http://www.w3.org/2000/svg">
    <path
        d="M29.8516 8.83784L28.2761 2.28073C27.9459 0.930299 26.7756 0 25.4101 0H4.56842C3.21799 0 2.03261 0.945304 1.71751 2.28073L0.141999 8.83784C-0.218117 10.3683 0.111989 11.9288 1.0723 13.1592C1.19234 13.3243 1.35739 13.4443 1.49243 13.5944V24.0077C1.49243 25.6583 2.84287 27.0087 4.4934 27.0087H25.5002C27.1507 27.0087 28.5011 25.6583 28.5011 24.0077V13.5944C28.6362 13.4593 28.8012 13.3243 28.9213 13.1742C29.8816 11.9438 30.2267 10.3683 29.8516 8.83784ZM25.3651 2.98596L26.9406 9.54307C27.0907 10.1733 26.9556 10.8035 26.5655 11.2986C26.3554 11.5687 25.9053 12.0039 25.1551 12.0039C24.2398 12.0039 23.4445 11.2686 23.3395 10.2933L22.4692 3.00097L25.3651 2.98596ZM16.4973 3.00097H19.4382L20.2485 9.78315C20.3235 10.3683 20.1434 10.9535 19.7533 11.3887C19.4232 11.7788 18.943 12.0039 18.3279 12.0039C17.3225 12.0039 16.4973 11.1186 16.4973 10.0382V3.00097ZM9.73008 9.78315L10.5553 3.00097H13.4963V10.0382C13.4963 11.1186 12.671 12.0039 11.5607 12.0039C11.0505 12.0039 10.5854 11.7788 10.2252 11.3887C9.85012 10.9535 9.67006 10.3683 9.73008 9.78315ZM3.05294 9.54307L4.56842 3.00097H7.52437L6.65409 10.2933C6.53406 11.2686 5.7538 12.0039 4.83851 12.0039C4.10327 12.0039 3.63812 11.5687 3.44306 11.2986C3.03793 10.8185 2.90289 10.1733 3.05294 9.54307ZM4.4934 24.0077V14.9598C4.61344 14.9748 4.71847 15.0048 4.83851 15.0048C6.14393 15.0048 7.32931 14.4647 8.19959 13.5794C9.09988 14.4797 10.3003 15.0048 11.6657 15.0048C12.9711 15.0048 14.1415 14.4647 15.0118 13.6094C15.8971 14.4647 17.0975 15.0048 18.4479 15.0048C19.7083 15.0048 20.9087 14.4797 21.809 13.5794C22.6793 14.4647 23.8646 15.0048 25.1701 15.0048C25.2901 15.0048 25.3951 14.9748 25.5152 14.9598V24.0077H4.4934Z"
        fill="white" fill-opacity="0.4" />
</svg>