<svg width="34" height="23" viewBox="0 0 34 23" fill="none" xmlns="http://www.w3.org/2000/svg">
<path d="M17 0C9.27273 0 2.67364 4.76867 0 11.5C2.67364 18.2313 9.27273 23 17 23C24.7273 23 31.3264 18.2313 34 11.5C31.3264 4.76867 24.7273 0 17 0ZM17 19.1667C12.7345 19.1667 9.27273 15.732 9.27273 11.5C9.27273 7.268 12.7345 3.83333 17 3.83333C21.2655 3.83333 24.7273 7.268 24.7273 11.5C24.7273 15.732 21.2655 19.1667 17 19.1667ZM17 6.9C14.4345 6.9 12.3636 8.95467 12.3636 11.5C12.3636 14.0453 14.4345 16.1 17 16.1C19.5655 16.1 21.6364 14.0453 21.6364 11.5C21.6364 8.95467 19.5655 6.9 17 6.9Z" fill="#CCCCCC"/>
</svg>
