<svg width="100%" height="100%" viewBox="0 0 20 20" fill="none" xmlns="http://www.w3.org/2000/svg">
    <path opacity="0.4"
        d="M13.8504 18.3333H6.14991C3.90786 18.3333 2.0835 16.5258 2.0835 14.3037V9.86278C2.0835 7.6407 3.90786 5.83325 6.14991 5.83325H13.8504C16.0925 5.83325 17.9168 7.6407 17.9168 9.86278V14.3037C17.9168 16.5258 16.0925 18.3333 13.8504 18.3333Z"
        fill="white" />
    <path
        d="M13.1293 8.33329C12.7866 8.33329 12.5086 8.06357 12.5086 7.73125V5.29737C12.5086 3.95922 11.3863 2.87072 10.0074 2.87072C9.37265 2.87072 8.70641 3.11796 8.23218 3.57311C7.75712 4.02986 7.49393 4.63753 7.49145 5.28613V7.73125C7.49145 8.06357 7.21336 8.33329 6.87072 8.33329C6.52808 8.33329 6.25 8.06357 6.25 7.73125V5.29737C6.25414 4.31082 6.64809 3.40052 7.3582 2.719C8.06748 2.03588 8.9845 1.69312 10.0099 1.66663C12.0707 1.66663 13.75 3.29536 13.75 5.29737V7.73125C13.75 8.06357 13.4719 8.33329 13.1293 8.33329Z"
        fill="white" />
</svg>