<svg width="22" height="22" viewBox="0 0 22 22" fill="none" xmlns="http://www.w3.org/2000/svg">
<path fill-rule="evenodd" clip-rule="evenodd" d="M15.8381 12.7318C16.4566 12.7318 16.9758 13.2423 16.8812 13.8531C16.3264 17.4464 13.2502 20.1144 9.54015 20.1144C5.43542 20.1144 2.1084 16.7874 2.1084 12.6836C2.1084 9.30254 4.67699 6.15307 7.56884 5.44096C8.19024 5.28754 8.82708 5.72464 8.82708 6.36438C8.82708 10.6988 8.97278 11.82 9.79585 12.4298C10.6189 13.0396 11.5867 12.7318 15.8381 12.7318Z" stroke="#ffffff" stroke-width="1.5" stroke-linecap="round" stroke-linejoin="round"/>
<path fill-rule="evenodd" clip-rule="evenodd" d="M19.885 9.12235C19.9342 6.33761 16.5135 1.84884 12.3451 1.92603C12.0209 1.93182 11.7614 2.202 11.7469 2.52524C11.6417 4.81498 11.7835 7.78208 11.8627 9.12717C11.8868 9.54594 12.2158 9.87498 12.6336 9.8991C14.0164 9.97822 17.0915 10.0863 19.3485 9.74472C19.6553 9.6984 19.8801 9.43208 19.885 9.12235Z" stroke="#ffffff" stroke-width="1.5" stroke-linecap="round" stroke-linejoin="round"/>
</svg>
