<svg width="11" height="12" viewBox="0 0 11 12" fill="none" xmlns="http://www.w3.org/2000/svg">
<path fill-rule="evenodd" clip-rule="evenodd" d="M10.0842 1.89173C10.3111 1.89173 10.5 2.08015 10.5 2.31989V2.54156C10.5 2.77547 10.3111 2.96972 10.0842 2.96972H0.416415C0.188918 2.96972 0 2.77547 0 2.54156V2.31989C0 2.08015 0.188918 1.89173 0.416415 1.89173H2.11725C2.46275 1.89173 2.76343 1.64615 2.84115 1.29965L2.93022 0.901824C3.06865 0.359913 3.52421 0 4.04557 0H6.45442C6.97012 0 7.43079 0.359913 7.56411 0.873241L7.65942 1.29907C7.73657 1.64615 8.03725 1.89173 8.38332 1.89173H10.0842ZM9.22005 9.99485C9.39762 8.33995 9.70852 4.40832 9.70852 4.36866C9.71986 4.24849 9.68072 4.13474 9.603 4.04316C9.5196 3.95741 9.41408 3.90666 9.29778 3.90666H1.20663C1.08976 3.90666 0.978562 3.95741 0.901407 4.04316C0.823116 4.13474 0.784538 4.24849 0.790211 4.36866C0.791254 4.37595 0.80241 4.51444 0.82106 4.74597C0.903912 5.77453 1.13467 8.63927 1.28378 9.99485C1.3893 10.9935 2.04456 11.6212 2.99369 11.6439C3.7261 11.6608 4.48064 11.6667 5.2522 11.6667C5.97894 11.6667 6.71703 11.6608 7.47213 11.6439C8.45417 11.627 9.10886 11.0104 9.22005 9.99485Z" fill="#FF7272"/>
</svg>
