<svg width="14" height="14" viewBox="0 0 14 14" fill="none" xmlns="http://www.w3.org/2000/svg">
<path opacity="0.4" d="M11.6623 11.0562H8.34059C8.01651 11.0562 7.75293 11.3239 7.75293 11.6531C7.75293 11.983 8.01651 12.2501 8.34059 12.2501H11.6623C11.9863 12.2501 12.2499 11.983 12.2499 11.6531C12.2499 11.3239 11.9863 11.0562 11.6623 11.0562Z" fill="#878787"/>
<path d="M6.0136 4.02719L9.16118 6.57057C9.23711 6.6314 9.25007 6.74302 9.19081 6.82077L5.45927 11.6831C5.22469 11.9834 4.87901 12.1534 4.50863 12.1596L2.47156 12.1847C2.36292 12.186 2.26785 12.1107 2.24316 12.0029L1.78019 9.98997C1.69994 9.62 1.78019 9.23749 2.01476 8.94277L5.76483 4.05729C5.82532 3.9789 5.93705 3.96511 6.0136 4.02719Z" fill="#878787"/>
<path opacity="0.4" d="M10.5703 5.05484L9.96345 5.81234C9.90234 5.88947 9.79246 5.90201 9.71653 5.84055C8.97887 5.24359 7.08995 3.71166 6.56586 3.28714C6.48932 3.22443 6.47882 3.11281 6.54055 3.03505L7.12575 2.30828C7.65662 1.62478 8.58256 1.56207 9.32949 2.15779L10.1875 2.84129C10.5394 3.1172 10.774 3.4809 10.8542 3.86341C10.9468 4.28417 10.848 4.69741 10.5703 5.05484Z" fill="#878787"/>
</svg>
