<svg width="98" height="122" viewBox="0 0 98 122" fill="none" xmlns="http://www.w3.org/2000/svg">
<path d="M31.839 134.786C19.1785 123.817 7.71552 110.717 2.94918 94.9972C-1.84799 79.2737 0.0165049 60.9584 9.70336 49.4117C19.3902 37.8651 36.9303 33.0912 52.5472 24.1634C68.1949 15.2399 81.9462 2.19747 96.368 0.9941C110.817 -0.174241 125.94 10.4656 133.428 24.1632C140.951 37.8341 140.812 54.5278 144.793 71.1784C148.748 87.794 156.824 104.366 152.414 115.68C148.008 126.962 131.085 132.982 115.621 140.076C100.187 147.175 86.2143 155.319 72.3125 154.99C58.384 154.626 44.4953 145.785 31.839 134.786Z" fill="url(#paint0_linear_5_1042)"/>
<defs>
<linearGradient id="paint0_linear_5_1042" x1="146.268" y1="165.134" x2="76.345" y2="-33.6776" gradientUnits="userSpaceOnUse">
<stop stop-color="white" stop-opacity="0.4"/>
<stop offset="1" stop-color="white" stop-opacity="0"/>
</linearGradient>
</defs>
</svg>
