<svg width="14" height="14" viewBox="0 0 14 14" fill="none" xmlns="http://www.w3.org/2000/svg">
<path d="M2.60707 0C1.77473 0 1.11957 0.655156 1.11957 1.4875V11.76H9.79957V1.4875C9.79957 0.655156 9.14441 0 8.31207 0H2.60707ZM3.05332 1.4H7.86582C8.14582 1.4 8.39957 1.65375 8.39957 1.93375V4.78625C8.39957 5.06625 8.14582 5.32 7.86582 5.32H3.05332C2.77332 5.32 2.51957 5.06625 2.51957 4.78625V1.93375C2.51957 1.65375 2.77332 1.4 3.05332 1.4ZM10.5608 1.47875L10.1583 1.88125L11.7596 3.47375V5.76625C11.7596 6.08453 11.8919 6.41484 12.1183 6.64125L13.4396 7.95375V10.08C13.4396 10.7078 12.9474 11.2 12.3196 11.2C11.6918 11.2 11.1996 10.7078 11.1996 10.08V8.68C11.1996 7.93625 10.738 7.32266 10.0796 7.09625V7.70875C10.4154 7.90016 10.6396 8.25781 10.6396 8.68V10.08C10.6396 11.0217 11.3779 11.76 12.3196 11.76C13.2613 11.76 13.9996 11.0217 13.9996 10.08V5.43375C13.9996 5.11547 13.8672 4.78516 13.6408 4.55875L10.5608 1.47875ZM0.83957 12.32C0.685352 12.32 0.55957 12.4447 0.55957 12.6V13.72C0.55957 13.8753 0.685352 14 0.83957 14H10.0796C10.2349 14 10.3596 13.8753 10.3596 13.72V12.6C10.3596 12.4447 10.2349 12.32 10.0796 12.32H0.83957Z" fill="white"/>
</svg>
