<svg width="16" height="16" viewBox="0 0 16 16" fill="none" xmlns="http://www.w3.org/2000/svg">
<g clip-path="url(#clip0_10_2030)">
<path d="M16 8C16 12.418 12.418 16 8 16C3.58197 16 0 12.418 0 8C0 3.58197 3.58197 0 8 0C12.419 0 16 3.58197 16 8Z" fill="#878787"/>
<path d="M3.94697 8.26887L3.98149 8.21463L6.06262 4.95899C6.09302 4.91131 6.16454 4.91625 6.18754 4.96802C6.53522 5.74722 6.83522 6.71627 6.69467 7.31956C6.63467 7.56777 6.4703 7.90395 6.28535 8.21463C6.26151 8.25984 6.23522 8.30423 6.20727 8.34697C6.19412 8.36668 6.17193 8.3782 6.14809 8.3782H4.00779C3.95026 8.3782 3.91657 8.31573 3.94697 8.26887Z" fill="#161929"/>
<path d="M13.223 8.87371V9.38905C13.223 9.41863 13.2049 9.44495 13.1786 9.45645C13.0175 9.5255 12.466 9.77865 12.2367 10.0975C11.6515 10.9121 11.2043 12.0767 10.2049 12.0767H6.03524C4.55741 12.0767 3.35986 10.8751 3.35986 9.39234V9.34466C3.35986 9.30521 3.39192 9.27316 3.43138 9.27316H5.75577C5.8018 9.27316 5.83551 9.3159 5.8314 9.36111C5.81496 9.51234 5.8429 9.66687 5.91441 9.80742C6.0525 10.0877 6.33853 10.2628 6.64758 10.2628H7.79826V9.36439H6.66072C6.60237 9.36439 6.56785 9.297 6.60155 9.24932C6.61387 9.23042 6.62785 9.21069 6.64264 9.1885C6.75032 9.03563 6.90401 8.79808 7.0569 8.52767C7.16127 8.34521 7.26237 8.1504 7.34374 7.95479C7.36018 7.91945 7.37334 7.88329 7.38648 7.84793C7.40868 7.78548 7.43169 7.72712 7.44813 7.66877C7.46456 7.61945 7.47771 7.56767 7.49087 7.51917C7.5295 7.35314 7.54594 7.17725 7.54594 6.99478C7.54594 6.92328 7.54266 6.84848 7.53608 6.77696C7.53279 6.69888 7.52292 6.6208 7.51306 6.54272C7.50648 6.47368 7.49416 6.40546 7.481 6.33396C7.46456 6.22957 7.44155 6.12601 7.41524 6.02162L7.40621 5.98217C7.38648 5.91067 7.37005 5.84244 7.34703 5.77094C7.2821 5.54655 7.2073 5.32792 7.1284 5.12326C7.09963 5.04189 7.06674 4.96381 7.03387 4.88573C6.98538 4.76818 6.93606 4.66134 6.89087 4.56024C6.86785 4.51421 6.84811 4.47229 6.8284 4.42955C6.80621 4.38105 6.78319 4.33257 6.76018 4.28653C6.74374 4.25119 6.72482 4.21832 6.71169 4.18544L6.57114 3.92571C6.5514 3.89037 6.58429 3.84845 6.6229 3.85913L7.50237 4.0975H7.50484C7.50648 4.0975 7.50731 4.09832 7.50813 4.09832L7.62402 4.13037L7.75142 4.16653L7.79826 4.17968V3.65695C7.79826 3.40461 8.00047 3.19995 8.25034 3.19995C8.37526 3.19995 8.48868 3.2509 8.57005 3.33392C8.65142 3.41695 8.70239 3.53037 8.70239 3.65695V4.43284L8.79608 4.45913C8.80349 4.4616 8.81089 4.46489 8.81746 4.46982C8.84047 4.48708 8.87334 4.51257 8.91526 4.54379C8.94815 4.5701 8.98349 4.60216 9.02623 4.63503C9.11089 4.70326 9.21197 4.7912 9.32294 4.89229C9.35252 4.91778 9.38131 4.94408 9.4076 4.97039C9.55062 5.10352 9.71089 5.2597 9.86378 5.43231C9.90651 5.48079 9.94843 5.5301 9.99117 5.58189C10.0339 5.63449 10.0791 5.68628 10.1186 5.73807C10.1704 5.8071 10.2262 5.8786 10.2747 5.95341C10.2977 5.98875 10.324 6.02491 10.3462 6.06025C10.4087 6.15478 10.4638 6.25259 10.5164 6.35039C10.5386 6.3956 10.5616 6.44491 10.5813 6.49341C10.6397 6.62409 10.6857 6.75725 10.7153 6.8904C10.7243 6.91917 10.7309 6.9504 10.7342 6.97835V6.98491C10.744 7.02438 10.7473 7.0663 10.7506 7.10904C10.7638 7.24546 10.7572 7.38191 10.7276 7.51917C10.7153 7.57753 10.6989 7.63259 10.6791 7.69096C10.6594 7.74685 10.6397 7.80519 10.6142 7.86027C10.5649 7.97451 10.5065 8.08877 10.4375 8.19561C10.4153 8.23506 10.389 8.27698 10.3627 8.31643C10.3339 8.35835 10.3043 8.39782 10.278 8.43645C10.2419 8.48576 10.2032 8.53753 10.1638 8.58356C10.1284 8.63206 10.0923 8.68056 10.0528 8.72329C9.99775 8.78822 9.94515 8.84987 9.89007 8.90905C9.8572 8.94768 9.82186 8.98713 9.78568 9.02248C9.75034 9.06192 9.71418 9.09727 9.6813 9.13014C9.62623 9.18521 9.5802 9.22795 9.54157 9.26329L9.45115 9.34631C9.43802 9.35782 9.42075 9.36439 9.40267 9.36439H8.70239V10.2628H9.58349C9.78075 10.2628 9.96815 10.1929 10.1194 10.0647C10.1712 10.0195 10.3972 9.82384 10.6643 9.52879C10.6734 9.51892 10.6849 9.51152 10.698 9.50823L13.1317 8.80466C13.1769 8.79151 13.223 8.82603 13.223 8.87371Z" fill="#161929"/>
</g>
<defs>
<clipPath id="clip0_10_2030">
<rect width="16" height="16" fill="white"/>
</clipPath>
</defs>
</svg>
