<svg width="20" height="20" viewBox="0 0 20 20" fill="none" xmlns="http://www.w3.org/2000/svg">
<path opacity="0.35" d="M15.8332 18.3333C16.7536 18.3333 17.4998 17.5871 17.4998 16.6667C17.4998 15.7462 16.7536 15 15.8332 15C14.9127 15 14.1665 15.7462 14.1665 16.6667C14.1665 17.5871 14.9127 18.3333 15.8332 18.3333Z" fill="#878787"/>
<path opacity="0.35" d="M9.99977 7.5C7.9306 7.5 6.00644 8.13167 4.40977 9.21167C3.5706 9.78 3.49394 10.9942 4.2106 11.7108L4.24227 11.7425C4.7906 12.2908 5.65227 12.3892 6.29727 11.9575C7.35727 11.2483 8.63144 10.8333 9.99977 10.8333C11.3681 10.8333 12.6423 11.2483 13.7014 11.9583C14.3464 12.39 15.2081 12.2917 15.7564 11.7433L15.7881 11.7117C16.5048 10.995 16.4289 9.78083 15.5889 9.2125C13.9931 8.13167 12.0689 7.5 9.99977 7.5Z" fill="#878787"/>
<path opacity="0.35" d="M7.93924 15.4392L8.56174 16.0617C9.3559 16.8558 10.6442 16.8558 11.4384 16.0617L12.0609 15.4392C12.9626 14.5375 12.5401 13.0083 11.3092 12.6742C10.8917 12.5608 10.4534 12.5 10.0001 12.5C9.54674 12.5 9.1084 12.5608 8.6909 12.6742C7.46007 13.0083 7.03757 14.5375 7.93924 15.4392Z" fill="#878787"/>
<path opacity="0.35" d="M10 5.83333C12.6809 5.83333 15.1525 6.74167 17.125 8.2675C17.7967 8.78667 18.7384 8.7625 19.3384 8.16167L19.3609 8.13917C20.0667 7.43333 19.9825 6.2725 19.195 5.65917C16.6534 3.67917 13.4575 2.5 9.98587 2.5C6.5217 2.5 3.33254 3.67417 0.794204 5.64583C0.00503722 6.25833 -0.0791294 7.42083 0.627537 8.12667L0.662537 8.16167C1.26254 8.76167 2.2042 8.78667 2.87587 8.2675C4.84754 6.74167 7.3192 5.83333 10 5.83333Z" fill="#878787"/>
<path d="M19.1665 14.1667C19.1665 12.325 17.6748 10.8334 15.8332 10.8334C13.9915 10.8334 12.4998 12.325 12.4998 14.1667C12.0415 14.1667 11.6665 14.5417 11.6665 15V18.3334C11.6665 18.7917 12.0415 19.1667 12.4998 19.1667H19.1665C19.6248 19.1667 19.9998 18.7917 19.9998 18.3334V15C19.9998 14.5417 19.6248 14.1667 19.1665 14.1667ZM15.8332 17.7084C15.2582 17.7084 14.7915 17.2417 14.7915 16.6667C14.7915 16.0917 15.2582 15.625 15.8332 15.625C16.4082 15.625 16.8748 16.0917 16.8748 16.6667C16.8748 17.2417 16.4082 17.7084 15.8332 17.7084ZM14.1665 14.1667C14.1665 13.25 14.9165 12.5 15.8332 12.5C16.7498 12.5 17.4998 13.25 17.4998 14.1667H14.1665Z" fill="#878787"/>
</svg>
