<svg width="22" height="22" viewBox="0 0 22 22" fill="none" xmlns="http://www.w3.org/2000/svg">
<path fill-rule="evenodd" clip-rule="evenodd" d="M2.75 5.95833C2.75 3.55189 2.77577 2.75 5.95833 2.75C9.1409 2.75 9.16667 3.55189 9.16667 5.95833C9.16667 8.36478 9.17682 9.16667 5.95833 9.16667C2.73985 9.16667 2.75 8.36478 2.75 5.95833Z" stroke="#878787" stroke-width="1.5" stroke-linecap="round" stroke-linejoin="round"/>
<path fill-rule="evenodd" clip-rule="evenodd" d="M12.8335 5.95833C12.8335 3.55189 12.8593 2.75 16.0418 2.75C19.2244 2.75 19.2502 3.55189 19.2502 5.95833C19.2502 8.36478 19.2603 9.16667 16.0418 9.16667C12.8233 9.16667 12.8335 8.36478 12.8335 5.95833Z" stroke="#88B8FF" stroke-width="1.5" stroke-linecap="round" stroke-linejoin="round"/>
<path fill-rule="evenodd" clip-rule="evenodd" d="M2.75 16.0417C2.75 13.6353 2.77577 12.8334 5.95833 12.8334C9.1409 12.8334 9.16667 13.6353 9.16667 16.0417C9.16667 18.4482 9.17682 19.25 5.95833 19.25C2.73985 19.25 2.75 18.4482 2.75 16.0417Z" stroke="#878787" stroke-width="1.5" stroke-linecap="round" stroke-linejoin="round"/>
<path fill-rule="evenodd" clip-rule="evenodd" d="M12.8335 16.0417C12.8335 13.6353 12.8593 12.8334 16.0418 12.8334C19.2244 12.8334 19.2502 13.6353 19.2502 16.0417C19.2502 18.4482 19.2603 19.25 16.0418 19.25C12.8233 19.25 12.8335 18.4482 12.8335 16.0417Z" stroke="#878787" stroke-width="1.5" stroke-linecap="round" stroke-linejoin="round"/>
</svg>
