<svg width="16" height="16" viewBox="0 0 16 16" fill="none" xmlns="http://www.w3.org/2000/svg">
    <path
        d="M6.71979 0.959961C3.71229 0.959961 1.27979 3.39246 1.27979 6.39996C1.27979 9.40746 3.71229 11.84 6.71979 11.84C7.79354 11.84 8.78729 11.525 9.62979 10.99L13.5598 14.92L14.9198 13.56L11.0398 9.68996C11.7373 8.77496 12.1598 7.64121 12.1598 6.39996C12.1598 3.39246 9.72729 0.959961 6.71979 0.959961ZM6.71979 2.23996C9.02354 2.23996 10.8798 4.09621 10.8798 6.39996C10.8798 8.70371 9.02354 10.56 6.71979 10.56C4.41604 10.56 2.55979 8.70371 2.55979 6.39996C2.55979 4.09621 4.41604 2.23996 6.71979 2.23996Z"
        fill="#878787" />
</svg>