<svg width="18" height="18" viewBox="0 0 18 18" fill="none" xmlns="http://www.w3.org/2000/svg">
<path opacity="0.4" d="M12.617 0.666504H5.39199C2.56699 0.666504 0.666992 2.64984 0.666992 5.59984V12.4082C0.666992 15.3498 2.56699 17.3332 5.39199 17.3332H12.617C15.442 17.3332 17.3337 15.3498 17.3337 12.4082V5.59984C17.3337 2.64984 15.442 0.666504 12.617 0.666504Z" fill="#AE88FF" fill-opacity="0.79"/>
<path d="M8.01128 11.7065C7.82462 11.7065 7.63795 11.6356 7.49545 11.4931L5.51795 9.51564C5.23295 9.23064 5.23295 8.76897 5.51795 8.48481C5.80295 8.19981 6.26378 8.19897 6.54878 8.48397L8.01128 9.94647L11.4513 6.50647C11.7363 6.22147 12.1971 6.22147 12.4821 6.50647C12.7671 6.79147 12.7671 7.25314 12.4821 7.53814L8.52712 11.4931C8.38462 11.6356 8.19795 11.7065 8.01128 11.7065Z" fill="#AC98EF"/>
</svg>
