<svg width="20" height="20" viewBox="0 0 20 20" fill="none" xmlns="http://www.w3.org/2000/svg">
<path opacity="0.4" d="M13.617 1.6665H6.39199C3.56699 1.6665 1.66699 3.64984 1.66699 6.59984V13.4082C1.66699 16.3498 3.56699 18.3332 6.39199 18.3332H13.617C16.442 18.3332 18.3337 16.3498 18.3337 13.4082V6.59984C18.3337 3.64984 16.442 1.6665 13.617 1.6665Z" fill="#88B8FF"/>
<path d="M9.01128 12.7065C8.82462 12.7065 8.63795 12.6356 8.49545 12.4931L6.51795 10.5156C6.23295 10.2306 6.23295 9.76898 6.51795 9.48481C6.80295 9.19981 7.26378 9.19897 7.54878 9.48397L9.01128 10.9465L12.4513 7.50647C12.7363 7.22147 13.1971 7.22147 13.4821 7.50647C13.7671 7.79147 13.7671 8.25314 13.4821 8.53814L9.52712 12.4931C9.38462 12.6356 9.19795 12.7065 9.01128 12.7065Z" fill="#88B8FF"/>
</svg>
