<svg width="22" height="22" viewBox="0 0 22 22" fill="none" xmlns="http://www.w3.org/2000/svg">
<path fill-rule="evenodd" clip-rule="evenodd" d="M19.0728 6.98821L18.5022 5.99813C18.0195 5.16037 16.9498 4.87136 16.1109 5.35206V5.35206C15.7116 5.5873 15.2351 5.65404 14.7865 5.53756C14.3379 5.42108 13.9541 5.13096 13.7196 4.73116C13.5688 4.47703 13.4878 4.18759 13.4847 3.8921V3.8921C13.4983 3.41835 13.3196 2.95927 12.9892 2.61943C12.6589 2.27959 12.205 2.08794 11.7311 2.08813H10.5816C10.1172 2.08813 9.67206 2.27315 9.34452 2.60226C9.01698 2.93138 8.8341 3.37744 8.83633 3.84176V3.84176C8.82257 4.80041 8.04146 5.57031 7.08271 5.57021C6.78721 5.56714 6.49777 5.4861 6.24365 5.33527V5.33527C5.40474 4.85458 4.33504 5.14359 3.85235 5.98135L3.23984 6.98821C2.75773 7.82493 3.0428 8.89395 3.87752 9.37952V9.37952C4.4201 9.69277 4.75434 10.2717 4.75434 10.8982C4.75434 11.5247 4.4201 12.1036 3.87752 12.4169V12.4169C3.04386 12.8992 2.75848 13.9656 3.23984 14.7998V14.7998L3.81879 15.7983C4.04495 16.2064 4.42441 16.5075 4.8732 16.6351C5.32199 16.7626 5.80311 16.7061 6.21009 16.4779V16.4779C6.61018 16.2445 7.08694 16.1805 7.53442 16.3002C7.98189 16.42 8.36299 16.7135 8.593 17.1156C8.74383 17.3697 8.82487 17.6592 8.82794 17.9546V17.9546C8.82794 18.9231 9.61306 19.7083 10.5816 19.7083H11.7311C12.6963 19.7083 13.4801 18.9283 13.4847 17.963V17.963C13.4824 17.4973 13.6665 17.0499 13.9958 16.7206C14.3252 16.3912 14.7725 16.2072 15.2383 16.2094C15.5331 16.2173 15.8213 16.298 16.0774 16.4444V16.4444C16.9141 16.9265 17.9831 16.6414 18.4687 15.8067V15.8067L19.0728 14.7998C19.3066 14.3984 19.3708 13.9204 19.2511 13.4716C19.1314 13.0227 18.8377 12.6401 18.4351 12.4085V12.4085C18.0325 12.1769 17.7388 11.7943 17.6191 11.3454C17.4994 10.8966 17.5636 10.4186 17.7974 10.0172C17.9495 9.75171 18.1696 9.53158 18.4351 9.37952V9.37952C19.2648 8.89422 19.5492 7.83143 19.0728 6.9966V6.9966V6.98821Z" stroke="#878787" stroke-width="1.5" stroke-linecap="round" stroke-linejoin="round"/>
<ellipse cx="11.1606" cy="10.8982" rx="2.41648" ry="2.41648" stroke="#878787" stroke-width="1.5" stroke-linecap="round" stroke-linejoin="round"/>
</svg>
