<svg width="16" height="16" viewBox="0 0 16 16" fill="none" xmlns="http://www.w3.org/2000/svg">
<path d="M14.4922 4H2.84115C1.9375 4 1.5651 3.57813 1.41927 3.32552L14 2V1.50781C14 0.674479 13.3255 0 12.4922 0L1.50781 2.04167C0.59375 2.20833 0 2.71875 0 3.54948V14.4922C0 15.3255 0.674479 16 1.50781 16H14.4922C15.3255 16 16 15.3255 16 14.4922V5.50781C16 4.67448 15.3255 4 14.4922 4ZM13.3333 11.3333C12.5964 11.3333 12 10.737 12 10C12 9.26302 12.5964 8.66667 13.3333 8.66667C14.0703 8.66667 14.6667 9.26302 14.6667 10C14.6667 10.737 14.0703 11.3333 13.3333 11.3333Z" fill="#878787"/>
</svg>
