<svg width="134" height="81" viewBox="0 0 134 81" fill="none" xmlns="http://www.w3.org/2000/svg">
    <path
        d="M126.489 -87.6883C150.291 -87.7251 174.452 -85.1329 192.957 -75.5469C211.5 -65.9796 224.406 -49.4658 222.613 -32.9223C220.819 -16.3788 204.287 0.213242 193.418 18.8602C182.51 37.5259 177.206 58.2368 161.372 69.6246C145.477 81.0027 119.073 83.0862 99.0578 77.1357C79.0242 71.2326 65.4404 57.3052 47.0848 46.3824C28.7893 35.4694 5.72205 27.561 1.55151 15.0127C-2.59847 2.49296 12.1877 -14.6854 24.388 -31.7045C36.5489 -48.7048 46.1446 -65.5172 62.6341 -75.2612C79.1836 -84.9955 102.666 -87.68 126.489 -87.6883Z"
        fill="url(#paint0_linear_5_1058)" />
    <defs>
        <linearGradient id="paint0_linear_5_1058" x1="-32" y1="-30.3777" x2="164.62" y2="140.055"
            gradientUnits="userSpaceOnUse">
            <stop stop-color="white" stop-opacity="0.4" />
            <stop offset="1" stop-color="white" stop-opacity="0" />
        </linearGradient>
    </defs>
</svg>