<svg width="126" height="126" viewBox="0 0 126 126" fill="none" xmlns="http://www.w3.org/2000/svg">
    <path
        d="M42.2606 139.83C25.2501 128.449 9.84856 114.856 3.44456 98.5458C-3.00088 82.2312 -0.495757 63.2274 12.5194 51.2466C25.5346 39.2659 49.1012 34.3125 70.0839 25.0491C91.1081 15.79 109.584 2.25735 128.961 1.00875C148.374 -0.20352 168.693 10.8363 178.754 25.0489C188.862 39.2337 188.675 56.555 194.025 73.8315C199.339 91.0718 210.189 108.267 204.263 120.006C198.344 131.713 175.607 137.958 154.829 145.32C134.092 152.685 115.319 161.135 96.6404 160.794C77.9263 160.416 59.2655 151.243 42.2606 139.83Z"
        fill="url(#paint0_linear_5_1053)" />
    <defs>
        <linearGradient id="paint0_linear_5_1053" x1="196.006" y1="171.319" x2="137.373" y2="-44.558"
            gradientUnits="userSpaceOnUse">
            <stop stop-color="white" stop-opacity="0.4" />
            <stop offset="1" stop-color="white" stop-opacity="0" />
        </linearGradient>
    </defs>
</svg>